<?xml version="1.0" encoding="UTF-8" standalone="no"?>
<svg xmlns:ffdec="https://www.free-decompiler.com/flash" xmlns:xlink="http://www.w3.org/1999/xlink" ffdec:objectType="shape" height="32.6px" width="111.95px" xmlns="http://www.w3.org/2000/svg">
  <g transform="matrix(1.0, 0.0, 0.0, 1.0, -591.8, -321.6)">
    <path d="M611.3 349.35 Q611.0 349.35 610.9 349.5 L610.75 349.8 610.7 350.25 610.75 350.65 610.9 351.0 611.3 351.1 611.7 351.0 611.85 350.65 611.9 350.25 611.85 349.8 611.7 349.5 Q611.6 349.35 611.3 349.35 M612.85 350.25 L612.65 351.1 612.1 351.7 611.3 351.95 610.5 351.7 609.95 351.1 609.75 350.25 Q609.75 349.5 610.2 349.05 610.6 348.55 611.3 348.55 612.0 348.55 612.4 349.05 612.85 349.5 612.85 350.25 M598.1 330.5 L598.1 331.8 591.8 331.8 591.8 322.3 593.25 322.3 593.25 330.5 598.1 330.5 M606.4 327.05 L605.8 326.1 Q605.35 325.75 604.65 325.75 603.95 325.75 603.5 326.1 603.05 326.45 602.85 327.05 602.7 327.6 602.7 328.25 L602.85 329.5 603.45 330.45 Q603.9 330.85 604.65 330.85 605.4 330.85 605.8 330.45 L606.45 329.5 606.6 328.25 606.4 327.05 M640.0 345.75 Q639.3 345.75 638.85 346.1 638.4 346.45 638.2 347.05 638.05 347.6 638.05 348.25 638.05 348.95 638.2 349.5 L638.8 350.45 Q639.25 350.85 640.0 350.85 640.75 350.85 641.15 350.45 L641.8 349.5 641.95 348.25 641.75 347.05 641.15 346.1 Q640.7 345.75 640.0 345.75 M640.0 344.65 Q641.05 344.65 641.8 345.1 L643.0 346.4 Q643.4 347.2 643.4 348.25 643.4 349.3 643.0 350.15 642.6 350.95 641.85 351.45 641.1 351.9 640.0 351.95 638.9 351.9 638.15 351.45 637.4 350.95 637.0 350.15 636.6 349.3 636.6 348.25 636.6 347.2 637.0 346.4 637.4 345.55 638.15 345.1 638.9 344.65 640.0 344.65 M632.5 324.8 L636.2 324.8 636.2 331.8 634.75 331.8 634.75 326.1 632.5 326.1 632.5 324.8 M627.2 345.4 L627.7 343.8 Q628.05 343.1 628.7 342.65 629.35 342.2 630.3 342.2 L631.55 342.45 632.5 343.25 Q632.85 343.75 632.85 344.45 L631.4 344.45 631.05 343.75 630.25 343.5 Q629.65 343.5 629.3 343.9 L628.8 344.85 Q628.6 345.4 628.55 346.0 L628.45 347.0 628.55 348.05 628.75 349.25 Q628.95 349.8 629.3 350.2 629.65 350.6 630.25 350.6 L631.05 350.3 631.4 349.55 632.85 349.55 Q632.85 350.3 632.5 350.8 L631.55 351.65 630.3 351.95 Q629.35 351.9 628.7 351.45 628.05 351.0 627.7 350.3 L627.2 348.7 627.05 347.1 627.2 345.4 M612.75 341.6 L612.75 342.4 607.3 351.8 606.55 351.8 606.55 351.05 612.05 341.6 612.75 341.6 M607.65 342.35 L607.5 342.7 607.5 343.15 607.5 343.5 607.65 343.85 608.05 344.0 608.5 343.85 608.65 343.5 608.65 343.15 608.65 342.7 608.5 342.35 608.05 342.25 607.65 342.35 M609.2 341.9 Q609.6 342.35 609.6 343.15 L609.45 343.95 608.9 344.55 608.05 344.8 607.25 344.55 606.7 343.95 606.5 343.15 Q606.55 342.35 606.95 341.9 607.4 341.45 608.05 341.4 608.75 341.45 609.2 341.9 M615.15 330.55 L615.8 329.8 616.0 328.7 616.0 328.5 614.5 328.5 613.75 328.6 Q613.35 328.7 613.15 329.0 L612.9 329.7 Q612.9 330.25 613.25 330.55 613.6 330.85 614.1 330.85 L615.15 330.55 M608.05 328.25 Q608.05 329.3 607.65 330.15 L606.5 331.45 Q605.75 331.9 604.65 331.95 603.55 331.9 602.8 331.45 602.05 330.95 601.65 330.15 601.25 329.3 601.25 328.25 601.25 327.2 601.65 326.4 602.05 325.55 602.8 325.1 603.55 324.65 604.65 324.65 605.7 324.65 606.45 325.1 L607.65 326.4 Q608.05 327.2 608.05 328.25 M613.35 324.8 L614.65 324.65 616.25 324.9 Q616.9 325.2 617.15 325.8 L617.45 327.45 617.45 331.8 616.0 331.8 616.0 331.15 615.05 331.7 613.95 331.95 612.7 331.7 611.8 330.95 Q611.45 330.45 611.45 329.75 611.45 329.1 611.75 328.6 L612.5 327.9 Q612.95 327.6 613.55 327.5 L614.7 327.4 616.0 327.4 616.0 327.15 615.95 326.4 615.55 325.95 614.7 325.75 614.0 325.8 Q613.65 325.85 613.45 326.05 L613.2 326.55 611.75 326.55 Q611.8 325.8 612.25 325.35 612.7 324.95 613.35 324.8 M626.35 327.05 L625.75 326.2 Q625.3 325.85 624.6 325.85 623.95 325.85 623.55 326.2 623.2 326.6 623.0 327.1 L622.85 328.2 623.0 329.4 623.6 330.35 Q624.0 330.7 624.7 330.75 625.35 330.7 625.8 330.35 L626.35 329.4 626.55 328.2 626.35 327.05 M626.5 325.5 L626.55 325.5 626.55 321.6 628.0 321.6 628.0 331.8 626.55 331.8 626.55 331.1 625.6 331.7 624.55 331.95 Q623.5 331.9 622.8 331.4 622.1 330.95 621.75 330.1 621.4 329.3 621.4 328.3 621.4 327.35 621.7 326.5 622.05 325.7 622.7 325.2 623.4 324.65 624.45 324.65 L625.6 324.85 626.5 325.5 M634.25 321.6 L636.2 321.6 636.2 323.4 634.25 323.4 634.25 321.6 M681.6 346.25 Q681.15 345.85 680.45 345.85 L679.6 346.05 Q679.2 346.25 678.95 346.55 678.7 346.9 678.7 347.4 L682.1 347.4 Q682.05 346.65 681.6 346.25 M678.65 345.15 Q679.35 344.65 680.45 344.65 681.55 344.65 682.25 345.1 682.9 345.55 683.25 346.35 L683.55 348.15 683.55 348.6 678.7 348.6 Q678.65 349.55 679.2 350.15 679.75 350.7 680.7 350.75 L681.4 350.65 681.85 350.25 683.25 350.25 682.8 351.25 681.8 351.8 680.65 351.95 678.8 351.5 Q678.0 351.05 677.65 350.25 677.25 349.45 677.25 348.35 677.25 347.3 677.6 346.45 677.95 345.65 678.65 345.15 M668.65 341.6 L670.1 341.6 670.1 349.1 Q670.1 349.95 670.45 350.3 L671.7 350.6 672.65 350.6 672.65 351.8 671.35 351.8 669.7 351.45 Q669.15 351.1 668.9 350.4 L668.65 348.75 668.65 341.6 M674.0 331.8 L674.0 329.6 676.65 329.6 676.65 331.8 674.0 331.8 M684.1 331.8 L684.1 329.6 686.75 329.6 686.75 331.8 684.1 331.8 M658.45 344.8 L658.45 345.45 658.55 345.4 659.4 344.85 660.45 344.65 Q661.5 344.65 662.2 345.2 662.9 345.7 663.25 346.5 663.6 347.35 663.6 348.3 L663.25 350.1 662.2 351.4 660.5 351.95 659.8 351.85 659.05 351.6 658.45 351.15 658.45 354.2 657.0 354.2 657.0 344.8 658.45 344.8 M660.35 345.85 Q659.65 345.85 659.2 346.2 658.8 346.55 658.65 347.1 L658.45 348.3 658.65 349.45 Q658.8 350.0 659.2 350.35 659.65 350.7 660.35 350.75 L661.45 350.4 662.0 349.5 662.2 348.35 662.05 347.15 661.5 346.25 Q661.1 345.85 660.35 345.85 M648.8 345.75 Q648.4 345.75 648.2 346.0 L648.0 346.55 647.95 347.2 647.95 351.8 646.5 351.8 646.5 344.8 647.95 344.8 647.95 345.3 648.25 345.05 648.55 344.85 648.95 344.7 649.35 344.65 650.0 344.8 650.55 345.2 651.2 344.8 651.95 344.65 652.9 344.95 653.5 345.65 653.65 346.65 653.65 351.8 652.2 351.8 652.2 346.65 652.15 346.0 Q652.05 345.75 651.6 345.75 651.2 345.75 651.05 346.0 L650.85 346.55 650.8 347.2 650.8 351.8 649.35 351.8 649.35 346.65 649.35 346.2 649.15 345.9 Q649.05 345.75 648.8 345.75 M648.2 327.4 L648.2 331.8 646.75 331.8 646.75 327.3 Q646.75 326.6 646.4 326.25 646.05 325.85 645.35 325.85 644.65 325.85 644.2 326.15 L643.55 326.95 643.35 328.15 643.35 331.8 641.9 331.8 641.9 324.8 643.35 324.8 643.35 325.55 643.4 325.55 643.95 325.05 Q644.3 324.85 644.7 324.75 L645.5 324.65 Q646.35 324.65 646.95 325.0 L647.85 325.95 648.2 327.4 M654.95 325.75 Q654.3 325.75 653.95 326.1 L653.45 326.95 Q653.3 327.45 653.3 328.0 L653.45 329.15 653.95 329.95 Q654.35 330.3 655.0 330.3 655.65 330.3 656.0 329.95 L656.55 329.05 656.7 327.95 656.55 326.85 656.0 326.05 654.95 325.75 M663.9 331.8 L663.9 329.6 666.55 329.6 666.55 331.8 663.9 331.8 M658.15 324.8 L658.15 331.55 Q658.1 332.65 657.7 333.2 657.25 333.8 656.5 334.0 L654.8 334.2 653.9 334.15 653.05 333.95 652.4 333.45 652.15 332.6 652.15 332.45 653.6 332.45 653.8 332.9 654.25 333.1 654.8 333.15 656.0 333.0 656.55 332.55 656.7 331.7 656.7 330.65 656.65 330.7 Q656.2 331.05 655.75 331.2 L654.75 331.4 Q653.75 331.35 653.1 330.9 652.45 330.45 652.15 329.65 651.85 328.85 651.85 327.9 651.85 327.0 652.2 326.3 652.5 325.55 653.15 325.1 653.75 324.65 654.7 324.65 L655.8 324.85 656.65 325.4 656.7 325.4 656.7 324.8 658.15 324.8 M702.45 345.1 Q703.1 345.55 703.45 346.35 L703.75 348.15 703.75 348.6 698.9 348.6 Q698.85 349.55 699.4 350.15 699.95 350.7 700.9 350.75 L701.6 350.65 702.05 350.25 703.45 350.25 703.0 351.25 Q702.6 351.65 702.0 351.8 L700.85 351.95 Q699.75 351.9 699.0 351.5 698.2 351.05 697.85 350.25 697.45 349.45 697.45 348.35 697.45 347.3 697.8 346.45 698.15 345.65 698.85 345.15 699.55 344.65 700.65 344.65 701.75 344.65 702.45 345.1 M700.65 345.85 L699.8 346.05 Q699.4 346.25 699.15 346.55 698.9 346.9 698.9 347.4 L702.3 347.4 Q702.25 346.65 701.8 346.25 701.35 345.85 700.65 345.85 M689.15 343.05 L690.6 342.7 690.6 344.65 693.1 344.65 693.1 345.85 690.6 345.85 690.6 349.4 Q690.55 349.7 690.65 350.0 690.7 350.35 690.9 350.5 L691.5 350.75 692.35 350.55 693.1 350.2 693.1 351.5 692.3 351.8 691.5 351.95 690.15 351.6 689.35 350.65 689.15 349.25 689.15 345.85 687.7 345.85 687.7 344.65 689.15 344.65 689.15 343.05" fill="#c8f7b8" fill-rule="evenodd" stroke="none"/>
  </g>
</svg>
