<?xml version="1.0" encoding="UTF-8" standalone="no"?>
<svg xmlns:ffdec="https://www.free-decompiler.com/flash" xmlns:xlink="http://www.w3.org/1999/xlink" ffdec:objectType="shape" height="274.35px" width="338.25px" xmlns="http://www.w3.org/2000/svg">
  <g transform="matrix(1.0, 0.0, 0.0, 1.0, 111.75, 1.0)">
    <path d="M53.95 -0.4 L49.9 60.7 25.25 61.1 28.3 -0.8 53.95 -0.4 M20.55 -0.6 L17.5 60.7 9.75 59.9 Q9.95 53.55 9.75 51.95 L8.65 47.0 10.7 -0.5 20.55 -0.6 M178.4 -1.0 L174.15 58.85 135.45 58.25 140.35 -0.8 178.4 -1.0 M226.5 -1.0 L221.2 57.45 183.7 57.65 188.8 -0.8 226.5 -1.0 M174.75 161.95 L183.3 64.35 220.2 64.35 210.8 167.65 174.75 161.95 M209.2 174.75 L200.0 273.35 166.4 265.0 173.55 169.9 209.2 174.75 M164.35 161.35 L128.1 156.85 135.25 65.2 172.3 65.2 164.35 161.35 M156.0 263.2 L120.8 253.8 127.3 162.95 163.35 168.45 156.0 263.2 M57.0 60.9 L61.1 -0.6 89.2 -0.2 85.95 60.3 57.0 60.9 M93.7 59.9 L98.15 -0.6 131.35 -0.2 126.5 58.65 93.7 59.9 M125.65 65.2 L119.55 155.6 87.8 151.15 93.5 65.6 125.65 65.2 M7.95 72.1 L16.5 81.5 15.25 99.2 6.7 78.6 7.95 72.1 M24.45 66.4 L48.65 66.6 47.25 103.25 Q28.1 76.4 24.45 73.15 L24.45 66.4 M23.8 78.0 L46.45 108.75 45.8 119.55 Q26.65 86.55 24.05 84.55 L23.8 78.0 M20.75 143.2 L22.8 89.85 Q40.1 112.85 45.0 126.9 45.0 142.0 44.4 146.05 L20.75 143.2 M53.15 137.1 L53.35 124.25 Q60.7 135.65 63.15 147.9 L56.6 147.7 53.15 137.1 M12.6 148.1 L9.75 215.5 0.6 214.1 3.45 145.85 12.6 148.1 M14.85 124.45 L14.25 142.0 4.05 140.55 5.1 122.4 14.85 124.45 M44.4 151.95 L40.1 215.9 38.7 218.35 39.1 220.0 30.35 219.8 21.6 216.95 17.1 216.35 20.55 148.7 44.4 151.95 M51.5 153.6 L54.8 153.4 Q56.3 157.4 58.5 165.5 61.45 176.35 62.5 183.75 64.15 195.15 65.8 221.0 L48.65 216.55 51.5 153.6 M78.0 149.9 L67.2 149.1 Q59.05 126.9 55.0 117.55 55.6 103.5 56.6 66.2 L85.35 66.0 80.45 148.7 78.0 149.9 M64.75 154.6 Q74.75 192.7 74.75 206.15 74.75 219.6 74.35 238.35 L69.45 237.1 Q68.25 208.4 67.2 199.6 66.15 190.3 63.85 176.35 61.0 159.05 59.25 154.6 L64.75 154.6 M69.25 155.2 L79.0 156.45 77.2 192.7 75.35 192.7 Q73.95 176.4 71.9 169.7 69.85 162.95 69.25 155.2 M118.75 162.15 L112.65 252.2 83.1 242.2 87.35 158.05 118.75 162.15 M-76.45 0.45 L-77.3 28.2 -80.2 28.2 -79.8 0.65 -76.45 0.45 M-93.6 2.5 L-94.85 29.05 -100.9 29.25 -100.45 4.2 -93.6 2.5 M-95.25 41.15 L-95.45 63.7 -101.5 64.35 -100.9 41.75 -95.25 41.15 M-77.9 41.75 L-77.9 63.7 Q-81.05 64.1 -81.25 63.7 -81.45 63.3 -80.65 41.35 L-77.9 41.75 M-78.55 67.45 L-78.55 91.7 -82.7 92.1 -81.9 67.65 -78.55 67.45 M-95.45 68.5 L-96.3 91.9 -102.15 92.1 -101.7 67.9 -95.45 68.5 M-106.95 41.35 L-107.55 64.1 -110.9 64.35 Q-111.1 41.35 -110.3 41.55 L-106.95 41.35 M-106.3 5.25 L-106.55 29.85 -109.45 30.7 -109.25 5.65 -106.3 5.25 M-107.35 68.1 L-107.55 91.45 -111.75 91.45 -110.1 68.1 -107.35 68.1" fill="#000000" fill-rule="evenodd" stroke="none"/>
  </g>
</svg>
